<svg id="Camada_1" data-name="Camada 1" xmlns="http://www.w3.org/2000/svg" width="100%" height="100%" viewBox="0 0 57.7 31.32"><defs><style>.cls-1{fill:#c1272d;}.cls-2{fill:#1b1464;}.cls-3{fill:#e6e6e6;}</style></defs><title>Logo</title><path class="cls-1" d="M43.85,35.32H2.46c-1,0-1.49-.81-1.11-1.8L11.48,7.12A2.93,2.93,0,0,1,14,5.32H55.37c1,0,1.49.81,1.11,1.8L46.35,33.52A2.93,2.93,0,0,1,43.85,35.32Z" transform="translate(-1.22 -4)"/><path class="cls-2" d="M46.17,34H4.78a1.2,1.2,0,0,1-1.12-1.8L13.79,5.8A2.94,2.94,0,0,1,16.29,4H57.68a1.19,1.19,0,0,1,1.11,1.8L48.66,32.2A2.93,2.93,0,0,1,46.17,34Z" transform="translate(-1.22 -4)"/><path class="cls-3" d="M27,15.38a1.83,1.83,0,0,1-.64,1.6,4.16,4.16,0,0,1-2.27.46,7.45,7.45,0,0,1-3-.53c-.74-.34-1.11-.76-1.11-1.27a2,2,0,0,1,.32-1,2.59,2.59,0,0,1,1.84-1.28l1.44-.15c.06,0,.1-.08.1-.13,0-.23-.3-.52-.89-.85a4.21,4.21,0,0,0-2.07-.56,2.58,2.58,0,0,0-2.29,1.15,4.46,4.46,0,0,0-.68,2.6,9.86,9.86,0,0,0,.15,1.67,16.13,16.13,0,0,0,1.51,5.2,2.08,2.08,0,0,0,1.83,1.16A4.78,4.78,0,0,0,22,23.4a4.07,4.07,0,0,0,2.36-1.16,10.74,10.74,0,0,0,1.24-1.9c.07-.05.11-.05.11,0a5.65,5.65,0,0,1,.05.76,5.82,5.82,0,0,1-.68,2.84,3.79,3.79,0,0,1-2.77,1.95,14.71,14.71,0,0,1-2.61.26q-6.06,0-6.06-7.86a7.78,7.78,0,0,1,1.94-5.74,6.57,6.57,0,0,1,4.84-1.74q3.51,0,5.22,1.59A3.94,3.94,0,0,1,27,15.38Z" transform="translate(-1.22 -4)"/><path class="cls-3" d="M31.43,23.86a2.52,2.52,0,0,1-.25,1,2.4,2.4,0,0,1-.61.9,2.89,2.89,0,0,1-1.88.54A2.67,2.67,0,0,1,27,25.71a1.63,1.63,0,0,1-.67-1.1c0-.06,0-.12,0-.18,0-.77.48-1.29,1.42-1.58a1.38,1.38,0,0,1-.69-.49,1.68,1.68,0,0,1-.32-1,1.06,1.06,0,0,1,.47-.93,2.35,2.35,0,0,1,1.36-.33c1.62,0,2.43.39,2.43,1.18A1.37,1.37,0,0,1,29.8,22.7a2.32,2.32,0,0,1,1.13.3A1,1,0,0,1,31.43,23.86Zm-.82.45c0-.2-.17-.38-.51-.55a2.84,2.84,0,0,0-1.31-.29,3.2,3.2,0,0,0-1,.15c-.34.11-.52.25-.52.44s.22.39.64.57a2.86,2.86,0,0,0,1.15.26,3.47,3.47,0,0,0,1.13-.15C30.46,24.64,30.61,24.49,30.61,24.31Zm-.4-2.84c0-.13-.1-.24-.31-.31a2.2,2.2,0,0,0-.8-.11,2.62,2.62,0,0,0-1.18.25c-.33.16-.49.34-.49.54s.33.36,1,.36a3,3,0,0,0,1.2-.25C30,21.79,30.21,21.63,30.21,21.47Z" transform="translate(-1.22 -4)"/><path class="cls-3" d="M49.12,23.53c-.19.36-.5.9-.91,1.62-1,0-1.68-.08-2.07-.08a27.38,27.38,0,0,0-4.47.41,20.24,20.24,0,0,0,.23-3.08,9.48,9.48,0,0,0-.28-2.62L37,19.28q-.3,1.06-.69,2.13a12.89,12.89,0,0,1-1,2.09,22.59,22.59,0,0,0,2.76.23,15.44,15.44,0,0,0-.17,2.14c-1.37-.46-2.65-.84-3.84-1.13-.79-.2-1.81-.41-3.05-.64.17-.22.38-.49.62-.83l.48-.66,1,.46a18.89,18.89,0,0,0,2.47-5.48,25.33,25.33,0,0,0,1.25-6.18c.9-.11,1.73-.25,2.5-.41a24,24,0,0,0,2.57-.73,39,39,0,0,1,2.94,6.6l1.95,5.64a1.43,1.43,0,0,0,1,.73Zm-6.93-8.11c0-.83-.56-1.25-1.69-1.25a3.9,3.9,0,0,0-2.21.66,1.89,1.89,0,0,0-1,1.57c0,.78.67,1.17,2,1.17C41.22,17.57,42.19,16.85,42.19,15.42Z" transform="translate(-1.22 -4)"/></svg>